<svg width="17" height="27" viewBox="0 0 17 27" fill="none" xmlns="http://www.w3.org/2000/svg">
<path d="M6 3C5.44772 3 5 3.44772 5 4C5 4.55228 5.44772 5 6 5H11C11.5523 5 12 4.55228 12 4C12 3.44772 11.5523 3 11 3H6Z" fill="white"/>
<path d="M7.5 23C7.5 22.4477 7.94772 22 8.5 22C9.05229 22 9.5 22.4477 9.5 23C9.5 23.5523 9.05229 24 8.5 24C7.94772 24 7.5 23.5523 7.5 23Z" fill="white"/>
<path fill-rule="evenodd" clip-rule="evenodd" d="M0.5 4C0.5 1.79086 2.29086 0 4.5 0H12.5C14.7091 0 16.5 1.79086 16.5 4V23C16.5 25.2091 14.7091 27 12.5 27H4.5C2.29086 27 0.5 25.2091 0.5 23V4ZM4.5 2C3.39543 2 2.5 2.89543 2.5 4V6H14.5V4C14.5 2.89543 13.6046 2 12.5 2H4.5ZM2.5 19V8H14.5V19H2.5ZM2.5 21V23C2.5 24.1046 3.39543 25 4.5 25H12.5C13.6046 25 14.5 24.1046 14.5 23V21H2.5Z" fill="white"/>
</svg>
