<svg width="29" height="29" viewBox="0 0 29 29" fill="none" xmlns="http://www.w3.org/2000/svg">
<path fill-rule="evenodd" clip-rule="evenodd" d="M18.9531 21.7815C16.9914 23.1784 14.5917 24 12 24C5.37258 24 0 18.6274 0 12C0 5.37258 5.37258 0 12 0C18.6274 0 24 5.37258 24 12C24 14.5917 23.1784 16.9914 21.7815 18.9531L27.5874 24.759C28.3685 25.54 28.3685 26.8064 27.5874 27.5874C26.8064 28.3685 25.54 28.3685 24.759 27.5874L18.9531 21.7815ZM20 12C20 16.4183 16.4183 20 12 20C7.58172 20 4 16.4183 4 12C4 7.58172 7.58172 4 12 4C16.4183 4 20 7.58172 20 12Z" fill="#2770F1"/>
</svg>
