<svg width="49" height="46" viewBox="0 0 49 46" fill="none" xmlns="http://www.w3.org/2000/svg">
<path fill-rule="evenodd" clip-rule="evenodd" d="M24.5 11.2342C23.3954 11.2342 22.5 10.3388 22.5 9.2342C22.5 8.10503 21.9802 6.27969 20.5787 4.74955C19.2362 3.28385 17.0014 2 13.3764 2C10.4628 2 7.64066 2.96749 5.56125 4.95231C3.50832 6.91186 2 10.0341 2 14.7063C2 22.5348 7.5551 29.8491 13.6052 35.4232C16.5777 38.1619 19.5591 40.3789 21.801 41.9124C22.9201 42.6779 23.8502 43.2698 24.4965 43.6681C24.4977 43.6688 24.4988 43.6695 24.5 43.6702C24.5012 43.6695 24.5023 43.6688 24.5035 43.6681C25.1498 43.2698 26.0799 42.6779 27.199 41.9124C29.4409 40.3789 32.4223 38.1619 35.3948 35.4232C41.4449 29.8491 47 22.5348 47 14.7063C47 10.0341 45.4917 6.91185 43.4388 4.95231C41.3593 2.96749 38.5372 2 35.6236 2C31.9986 2 29.7638 3.28385 28.4213 4.74955C27.0199 6.27969 26.5 8.10503 26.5 9.2342C26.5 10.3388 25.6046 11.2342 24.5 11.2342ZM25.6134 5.25621C27.0939 2.5701 30.1797 0 35.6236 0C42.3113 0 49 4.4461 49 14.7063C49 32.1487 24.5 46 24.5 46C24.5 46 0 32.1487 0 14.7063C0 4.4461 6.68872 0 13.3764 0C18.8203 0 21.9061 2.5701 23.3866 5.25621C24.1654 6.66917 24.5 8.11424 24.5 9.2342C24.5 8.11424 24.8346 6.66917 25.6134 5.25621Z" fill="#2770F1"/>
</svg>
