<svg width="24" height="24" viewBox="0 0 24 24" fill="none" xmlns="http://www.w3.org/2000/svg">
<path d="M13.2458 14.0315C11.7999 13.3276 10.7107 12.2295 9.79062 10.9343C9.86413 10.8348 9.93765 10.7388 10.0098 10.6446C10.2233 10.3659 10.4249 10.1027 10.5793 9.80807C10.692 9.59221 10.7295 9.2731 10.6544 9.05724C10.3727 8.27825 10.0535 7.51804 9.68734 6.77659C9.57467 6.55134 9.27422 6.2604 9.04889 6.25101C8.24143 6.22286 7.26498 6.39179 6.76736 7.25525C6.18524 8.26887 6.02563 9.35757 6.48569 10.4087C6.89881 11.3379 7.44337 12.2295 8.04426 13.0554C9.47139 14.9982 11.3116 16.3966 13.6683 17.0536C14.4476 17.2695 15.2362 17.4665 16.0625 17.2976C17.3394 17.0442 18.2313 16.0681 18.3252 14.7823C18.3534 14.3694 18.2313 14.0597 17.8276 13.8719C17.3746 13.6661 16.9253 13.4529 16.475 13.2393C16.2067 13.1119 15.9381 12.9845 15.6681 12.8583C15.2268 12.6612 14.8513 12.7269 14.5602 13.1399C14.4807 13.2528 14.3919 13.3601 14.3029 13.4677C14.1922 13.6015 14.0812 13.7356 13.9875 13.8813C13.7809 14.191 13.565 14.191 13.2458 14.0315Z" fill="#2770F1"/>
<path fill-rule="evenodd" clip-rule="evenodd" d="M6.92698 22.2437C8.57945 23.0321 10.307 23.4356 12.1379 23.5107C12.4027 23.4761 12.6685 23.4467 12.9347 23.4173C13.4614 23.3591 13.9894 23.3008 14.5133 23.201C20.5692 22.0748 24.7942 16.1338 23.8741 10.0427C22.8695 3.41662 16.4756 -1.07898 9.90329 0.225586C2.06348 1.78356 -1.955 10.2679 1.7912 17.3258C1.89448 17.5229 1.91326 17.8138 1.84754 18.0203C1.47769 19.1529 1.09683 20.2818 0.716428 21.4094C0.48845 22.0851 0.260638 22.7604 0.0354626 23.4356C-0.0114823 23.5858 -0.0208708 23.8486 0.0636299 23.9331C0.148131 24.0269 0.401633 24.0082 0.561246 23.9612C1.37714 23.7084 2.19127 23.4502 3.00516 23.1922C4.06445 22.8563 5.12335 22.5205 6.18525 22.1968C6.41059 22.1217 6.72043 22.1405 6.92698 22.2437ZM4.54535 20.1373C4.25106 20.2295 3.95028 20.3238 3.64084 20.4229C3.75038 20.1007 3.85366 19.791 3.95416 19.4896C4.15515 18.8868 4.34501 18.3175 4.55157 17.7481C4.66424 17.4384 4.61729 17.1944 4.4389 16.9222C2.16676 13.5059 2.28882 9.38572 4.75813 6.11961C8.14755 1.61462 15.0015 1.20167 18.8979 5.31246C21.3954 7.95914 22.2029 11.1126 21.048 14.5758C19.8744 18.1047 17.33 20.2071 13.6683 20.864C11.4337 21.2676 9.32118 20.8359 7.36827 19.6627C7.02087 19.4562 6.72043 19.4187 6.35425 19.5501C5.76686 19.7543 5.17078 19.9412 4.54535 20.1373Z" fill="#2770F1"/>
</svg>
