<svg width="15" height="30" viewBox="0 0 15 30" fill="none" xmlns="http://www.w3.org/2000/svg">
<path d="M0 16.3331C0 14.5383 0 12.8138 0 11.0072C1.4717 11.0072 2.90943 11.0072 4.42641 11.0072C4.42641 10.6787 4.41509 10.4089 4.42641 10.1508C4.4717 8.5084 4.35849 6.84257 4.60755 5.2354C5.08302 2.11489 7.36981 0.132316 10.4717 0.0150036C11.966 -0.0436525 13.4717 0.085391 15 0.132316C15 1.79815 15 3.34667 15 4.98904C14.6604 4.98904 14.3321 4.98904 14.0038 4.98904C13.2453 5.00077 12.4981 5.00077 11.7396 5.03597C10.5623 5.09462 9.86038 5.69291 9.79245 6.8895C9.71321 8.22686 9.76981 9.57595 9.76981 10.9954C11.4566 10.9954 13.1208 10.9954 14.8415 10.9954C14.6151 12.802 14.4 14.5383 14.1736 16.3097C12.7019 16.3097 11.2755 16.3097 9.76981 16.3097C9.76981 20.8966 9.76981 25.4248 9.76981 30C7.96981 30 6.23773 30 4.42641 30C4.42641 25.46 4.42641 20.9318 4.42641 16.3331C2.92075 16.3331 1.48302 16.3331 0 16.3331Z" fill="#2770F1"/>
</svg>
