<svg width="24" height="14" viewBox="0 0 24 14" fill="none" xmlns="http://www.w3.org/2000/svg">
<path d="M7.9076 0.807057C8.2448 0.605695 8.55391 0.308446 8.90985 0.231737C10.2961 -0.0751009 11.7012 -0.0559232 13.0968 0.164616C13.79 0.27968 14.0522 0.615284 14.0522 1.3632C14.0616 2.48507 14.0148 3.59736 14.0054 4.71924C14.0054 5.17949 13.996 5.64934 14.0803 6.1C14.1272 6.34931 14.3145 6.66574 14.5206 6.77121C14.6705 6.84792 15.017 6.67533 15.1856 6.51232C16.1598 5.60139 16.7593 4.42199 17.3681 3.25217C17.6866 2.64808 17.9488 2.01523 18.2017 1.38238C18.3984 0.893355 18.6701 0.663228 19.2134 0.672816C20.4779 0.701582 21.7424 0.653639 23.0069 0.634461C23.878 0.624873 24.234 1.04677 23.8406 1.82346C23.3067 2.87821 22.651 3.87543 22.0047 4.86307C21.4895 5.64934 20.8994 6.36849 20.3748 7.13558C19.9159 7.80679 19.9721 8.19992 20.5247 8.79442C21.4052 9.7437 22.3232 10.6546 23.1755 11.6327C23.4846 11.9875 23.7282 12.4477 23.8968 12.8984C24.1028 13.4545 23.8312 13.8764 23.2505 13.9052C21.9578 13.9723 20.6559 14.0202 19.3632 13.9915C18.6514 13.9819 18.0612 13.56 17.5742 13.0518C17.0965 12.5532 16.6469 12.0162 16.1785 11.4984C16.0848 11.393 15.9818 11.2971 15.8788 11.1916C14.9796 10.3094 14.455 10.856 14.1834 11.719C14.0616 12.1025 14.0616 12.534 14.0335 12.9463C13.9773 13.6559 13.7338 13.934 13.0406 13.9244C12.0758 13.9052 11.083 13.9723 10.1556 13.7709C8.2167 13.349 6.64308 12.2176 5.37856 10.6834C3.14925 7.97938 1.51942 4.89183 0.13313 1.67004C-0.157241 0.99883 0.0207285 0.691994 0.732608 0.672816C1.80979 0.64405 2.88698 0.634462 3.96416 0.624873C4.54491 0.615284 4.90085 0.902944 5.15375 1.43991C5.80943 2.83027 6.49321 4.21104 7.22382 5.56304C7.43926 5.97535 7.78583 6.33013 8.1324 6.63697C8.59138 7.04928 9.01288 6.92463 9.19085 6.32054C9.49996 5.24661 9.50933 4.1535 9.42502 3.04122C9.40629 2.83027 9.38756 2.62891 9.35009 2.42754C9.20022 1.52621 9.07845 1.40156 7.9919 0.960476C7.9638 0.912533 7.9357 0.855 7.9076 0.807057Z" fill="#2770F1"/>
</svg>
